<svg height="512pt" viewBox="-37 0 512 512.00151" width="512pt" xmlns="http://www.w3.org/2000/svg"><path d="m95.949219 350.234375c-2.558594-2.648437-3.757813-6.328125-3.242188-9.976563.902344-6.378906-3.414062-12.324218-9.761719-13.4375-3.625-.636718-6.757812-2.910156-8.484374-6.164062-3.019532-5.691406-10.007813-7.960938-15.796876-5.132812-3.308593 1.617187-7.179687 1.617187-10.488281 0-5.785156-2.828126-12.777343-.558594-15.792969 5.132812-1.726562 3.253906-4.859374 5.527344-8.488281 6.164062-6.34375 1.113282-10.664062 7.058594-9.761719 13.4375.515626 3.648438-.679687 7.328126-3.242187 9.976563-4.476563 4.628906-4.476563 11.976563 0 16.605469 2.5625 2.648437 3.757813 6.332031 3.242187 9.976562-.902343 6.378906 3.417969 12.324219 9.761719 13.4375 3.628907.636719 6.761719 2.910156 8.488281 6.164063 3.015626 5.691406 10.007813 7.960937 15.792969 5.132812 3.308594-1.617187 7.179688-1.617187 10.488281 0 5.789063 2.828125 12.777344.558594 15.796876-5.132812 1.726562-3.253907 4.855468-5.527344 8.484374-6.164063 6.347657-1.113281 10.664063-7.058594 9.761719-13.4375-.515625-3.644531.679688-7.328125 3.242188-9.976562 4.480469-4.628906 4.480469-11.976563 0-16.605469zm0 0" fill="#e9e9e9"/><path d="m82.945312 390.253906c6.347657-1.113281 10.664063-7.058594 9.761719-13.4375-.515625-3.644531.679688-7.328125 3.242188-9.976562 4.480469-4.628906 4.480469-11.976563 0-16.605469-2.558594-2.648437-3.757813-6.328125-3.242188-9.976563.8125-5.734374-2.605469-11.105468-7.910156-12.945312-2.238281 1.921875-4.417969 3.9375-6.523437 6.046875-18.84375 18.839844-30.332032 43.054687-33.042969 69.171875 1-.195312 1.988281-.511719 2.945312-.980469 3.308594-1.617187 7.179688-1.617187 10.488281 0 5.789063 2.828125 12.777344.558594 15.796876-5.132812 1.726562-3.253907 4.859374-5.527344 8.484374-6.164063zm0 0" fill="#d3d2d8"/><g fill="#a6adb9"><path d="m264.679688 504.492188c12.875 0 20.828124-13.960938 14.351562-25.085938-4.714844-8.097656-11.902344-15.023438-22.6875-15.023438 35.390625-21.238281 47.539062-62.453124 47.539062-62.453124l-64.902343-29.402344c-15.09375-28.457032-45.019531-47.839844-79.476563-47.839844-49.609375 0-89.90625 40.296875-89.902344 89.90625 0 49.652344 40.25 89.902344 89.902344 89.902344h105.175782zm0 0"/><path d="m221.894531 54.847656c33.210938 79.859375 44.535157 151.078125 25.300781 159.078125-19.238281 8-61.753906-50.253906-94.960937-130.109375-33.210937-79.855468 36.453125-108.824218 69.660156-28.96875zm0 0"/><path d="m352.8125 54.847656c-33.210938 79.859375-44.535156 151.078125-25.300781 159.078125 19.238281 8 61.753906-50.253906 94.960937-130.109375 33.207032-79.855468-36.453125-108.824218-69.660156-28.96875zm0 0"/></g><path d="m247.195312 213.925781c11.34375-4.714843 12.054688-31.421875 3.921876-68.914062-21.285157 4.023437-39.804688 11.824219-55.402344 23.335937 20.792968 32.058594 40.164062 50.285156 51.480468 45.578125zm0 0" fill="#8895a2"/><path d="m327.511719 213.925781c11.316406 4.707031 30.6875-13.519531 51.484375-45.578125-15.601563-11.511718-34.117188-19.3125-55.40625-23.335937-8.132813 37.492187-7.421875 64.199219 3.921875 68.914062zm0 0" fill="#8895a2"/><path d="m238.980469 372.527344c-15.09375-28.457032-45.019531-47.839844-79.476563-47.839844-4.65625 0-9.234375.355469-13.703125 1.039062.425781 14.859376 3.203125 39.675782 21.476563 61.148438 23.179687 27.238281 62.457031 40.484375 120.074218 40.484375 1.609376 0 3.199219-.015625 4.777344-.035156 8.375-13.941407 11.753906-25.398438 11.753906-25.398438zm0 0" fill="#8895a2"/><path d="m287.351562 402.359375c-113.929687 0-116.628906-56.628906-116.628906-83.597656 0-26.964844-10.109375-146.964844 116.628906-146.964844 126.742188 0 116.628907 120 116.628907 146.964844.003906 26.964843-2.695313 83.597656-116.628907 83.597656zm0 0" fill="#a6adb9"/><path d="m229.089844 307.355469c4.140625 0 7.5-3.359375 7.5-7.5v-10.546875c0-4.140625-3.359375-7.5-7.5-7.5s-7.5 3.359375-7.5 7.5v10.546875c0 4.140625 3.359375 7.5 7.5 7.5zm0 0"/><path d="m345.613281 307.355469c4.140625 0 7.5-3.359375 7.5-7.5v-10.546875c0-4.140625-3.359375-7.5-7.5-7.5-4.144531 0-7.5 3.359375-7.5 7.5v10.546875c0 4.140625 3.355469 7.5 7.5 7.5zm0 0"/><path d="m273.507812 303.457031c4.207032 1.8125 8.898438 2.824219 13.84375 2.824219 4.945313 0 9.632813-1.011719 13.84375-2.824219 4.414063-1.902343 3.070313-8.492187-1.742187-8.492187h-24.207031c-4.808594 0-6.15625 6.589844-1.738282 8.492187zm0 0"/><path d="m274.457031 332.84375c4.632813 0 9.082031-1.257812 12.894531-3.554688 3.808594 2.296876 8.257813 3.554688 12.890626 3.554688 7.1875 0 13.945312-3.015625 18.539062-8.269531 2.726562-3.117188 2.40625-7.855469-.710938-10.582031-3.117187-2.726563-7.855468-2.40625-10.582031.710937-1.746093 1.996094-4.386719 3.140625-7.246093 3.140625-2.859376 0-5.5-1.144531-7.246094-3.140625-2.933594-3.355469-8.359375-3.355469-11.292969 0-1.742187 1.996094-4.382813 3.140625-7.246094 3.140625-2.859375 0-5.5-1.144531-7.242187-3.140625-2.726563-3.121094-7.464844-3.4375-10.585938-.710937-3.117187 2.726562-3.433594 7.464843-.707031 10.582031 4.59375 5.253906 11.347656 8.269531 18.535156 8.269531zm0 0"/><path d="m22.597656 397.648438c1.359375.238281 2.507813 1.074218 3.15625 2.296874 3.378906 6.371094 9.964844 10.332032 17.183594 10.332032 2.976562 0 5.84375-.667969 8.527344-1.980469 1.210937-.589844 2.699218-.589844 3.90625 0 2.167968 1.0625 4.460937 1.691406 6.828125 1.898437-.0625 1.460938-.101563 2.933594-.101563 4.40625 0 53.707032 43.695313 97.398438 97.402344 97.398438h105.175781c18.335938 0 30.054688-20.523438 20.832031-36.355469-3.859374-6.636719-8.234374-11.019531-12.628906-13.875 21.734375-18.1875 32.566406-42.3125 36.464844-52.679687 39.804688-2.925782 68.269531-14.171875 84.757812-33.546875 15.089844-17.734375 17.042969-40.027344 17.453126-62.308594.4375-24.019531 1.46875-80.261719-34.28125-116.671875-1.734376-1.769531-3.542969-3.457031-5.402344-5.082031 16.746094-21.710938 35.082031-53.878907 51.039062-89.722657 1.6875-3.785156-.015625-8.21875-3.800781-9.902343-3.78125-1.683594-8.214844.015625-9.898437 3.800781-15.5625 34.949219-33.3125 66.125-49.367188 86.863281-8.382812-5.285156-17.742188-9.417969-28.03125-12.410156-.199219-.054687-4.800781-1.300781-4.824219-1.308594 3.863281-29.902343 15.621094-69.875 32.746094-111.066406 14.726563-35.40625 35.765625-46.425781 49.085937-41.679687 16.660157 5.933593 17.429688 31.460937 11.09375 52.667968-1.183593 3.96875 1.070313 8.144532 5.039063 9.332032s8.148437-1.070313 9.335937-5.039063c11.898438-39.84375-1.6875-64.414063-20.433593-71.089844-11.457031-4.082031-24.433594-1.625-36.535157 6.917969-12.496093 8.816406-23.367187 23.734375-31.433593 43.132812-17.433594 41.921876-29.480469 82.867188-33.644531 113.988282-7.863282-1.101563-16.160157-1.660156-24.890626-1.660156-8.726562 0-17.023437.558593-24.886718 1.660156-4.164063-31.125-16.210938-72.066406-33.644532-113.988282-19.09375-45.90625-49.4375-57.816406-69.542968-49.453124-32.511719 13.523437-24.414063 59.066406-13.96875 84.183593 7.578125 18.222657 15.785156 35.695313 24.390625 51.933594 1.9375 3.660156 6.476562 5.054687 10.136719 3.117187 3.660156-1.941406 5.054687-6.480468 3.113281-10.140624-8.386719-15.828126-16.390625-32.875-23.792969-50.671876-6.976562-16.785156-17.617188-54.800781 5.878906-64.570312 13.871094-5.769531 35.472656 6.589844 49.933594 41.363281 17.128906 41.1875 28.882812 81.160157 32.746094 111.066407-.023438.007812-4.625 1.25-4.824219 1.308593-10.292969 2.992188-19.648437 7.128907-28.03125 12.410157-5.628906-7.265626-11.488281-15.835938-17.476563-25.570313-2.171874-3.527344-6.789062-4.628906-10.316406-2.457031-3.53125 2.167968-4.628906 6.789062-2.460937 10.316406 6.210937 10.089844 12.320312 19.015625 18.230469 26.664062-1.863282 1.625-3.667969 3.316407-5.40625 5.085938-35.75 36.410156-34.71875 92.65625-34.277344 116.671875.027344 1.488281.050781 2.835937.0625 4.042969-1.242188-.050782-2.480469-.082032-3.710938-.082032-21.683594 0-42.296875 7.0625-59.222656 20.085938-.5625-8.785156-7.007812-16.253906-16.039062-17.835938-1.359376-.238281-2.511719-1.074218-3.15625-2.296874-4.84375-9.128907-16.433594-12.886719-25.714844-8.351563-1.207032.589844-2.695313.589844-3.902344 0-9.3125-4.550781-20.859375-.792969-25.714844 8.351563-.644531 1.222656-1.796875 2.058593-3.15625 2.292968-10.386718 1.824219-17.367187 11.429688-15.890625 21.875.191407 1.367188-.246093 2.71875-1.207031 3.710938-7.332031 7.582031-7.332031 19.457031 0 27.035156.960938.992188 1.398438 2.347656 1.207031 3.710938-1.480469 10.445312 5.5 20.054687 15.890625 21.875zm185.53125-190.578126c20.632813-21.011718 50.699219-27.765624 79.222656-27.765624 28.441407 0 58.65625 6.824218 79.21875 27.765624 31.339844 31.917969 30.390626 83.753907 29.984376 105.890626-.347657 18.902343-.929688 37.644531-13.875 52.859374-21.632813 25.417969-60.121094 28.613282-91.21875 29.019532-30 .394531-65.699219-1.640625-90.550782-20.640625-.035156-.027344-.070312-.054688-.101562-.078125-19.121094-14.660156-22.25-38.648438-22.664063-61.160156-.40625-22.136719-1.355469-73.96875 29.984375-105.890626zm-48.625 125.125c1.382813 0 2.777344.039063 4.183594.109376.183594 2.097656.4375 4.296874.789062 6.578124 3.667969 23.816407 17.871094 43.433594 39.09375 54.707032.011719.003906.019532.011718.03125.015625 27.449219 13.390625 58.773438 16.796875 88.976563 16.21875.074219 0 .152344 0 .230469-.003907-5.699219 12.78125-18.140625 34.828126-40.328125 48.140626-3.265625 1.957031-4.546875 6.351562-2.851563 9.765624 1.253906 2.515626 3.898438 4.164063 6.710938 4.164063 6.476562 0 11.78125 3.695313 16.207031 11.300781 3.523437 6.050782-.917969 13.8125-7.871094 13.8125h-35.972656c2.867187-6.9375 2.359375-14.714844-1.507813-21.359375-6.511718-11.183593-14.480468-15.992187-21.542968-17.804687-.21875-7.722656-1.710938-20.242188-8.210938-30.925782-2.15625-3.539062-6.769531-4.660156-10.308594-2.507812-3.539062 2.152344-4.660156 6.769531-2.503906 10.308594 7.386719 12.136718 5.945313 28.792968 5.929688 28.949218-.398438 4.351563 3.082031 8.226563 7.464844 8.226563 6.480468 0 11.78125 3.695313 16.207031 11.300781 3.523437 6.046875-.914063 13.8125-7.867188 13.8125h-46.863281c-45.433594 0-82.402344-36.964844-82.402344-82.402344 0-21.792968 8.921875-43.140624 24.398438-58.488281 15.546875-15.421875 36.128906-23.917969 58.007812-23.917969zm-143.222656 23.261719c4.199219-4.339843 6.121094-10.257812 5.277344-16.242187-.339844-2.386719 1.253906-4.582032 3.628906-4.996094 5.949219-1.046875 10.984375-4.703125 13.816406-10.039062 1.109375-2.089844 3.753906-2.945313 5.875-1.910157 5.289063 2.585938 11.789063 2.585938 17.078125 0 2.128907-1.039062 4.761719-.183593 5.875 1.910157 2.832031 5.335937 7.867188 8.992187 13.816407 10.039062 2.375.417969 3.96875 2.613281 3.632812 4.996094-.523438 3.691406.007812 7.359375 1.476562 10.644531-.058593.0625-.113281.128906-.167968.195313-11.34375 12.765624-19.222656 28.472656-22.582032 45.21875-.707031.019531-1.402343-.132813-2.050781-.449219-5.289062-2.585938-11.789062-2.585938-17.078125 0-2.125 1.039062-4.765625.183593-5.875-1.910157-2.832031-5.335937-7.867187-8.996093-13.816406-10.039062-2.371094-.414062-3.96875-2.609375-3.628906-5 .84375-5.976562-1.078125-11.898438-5.277344-16.238281-1.675781-1.734375-1.675781-4.445313 0-6.179688zm0 0"/></svg>